0
SECTION
2
HEADER
9
$INSUNITS
70
4
9
$ACADVER
1
AC1014
9
$HANDSEED
5
FFFF
0
ENDSEC
0
SECTION
2
TABLES
0
TABLE
2
VPORT
5
8
100
AcDbSymbolTable
0
ENDTAB
0
TABLE
2
LTYPE
5
5
100
AcDbSymbolTable
0
LTYPE
5
14
100
AcDbSymbolTableRecord
100
AcDbLinetypeTableRecord
2
BYBLOCK
70
0
0
LTYPE
5
15
100
AcDbSymbolTableRecord
100
AcDbLinetypeTableRecord
2
BYLAYER
70
0
0
ENDTAB
0
TABLE
2
LAYER
5
2
100
AcDbSymbolTable
70
2
0
LAYER
5
50
100
AcDbSymbolTableRecord
100
AcDbLayerTableRecord
2
0
70
0
6
CONTINUOUS
0
ENDTAB
0
TABLE
2
STYLE
5
3
100
AcDbSymbolTable
70
1
0
STYLE
5
11
100
AcDbSymbolTableRecord
100
AcDbTextStyleTableRecord
2
STANDARD
70
0
0
ENDTAB
0
TABLE
2
VIEW
5
6
100
AcDbSymbolTable
70
0
0
ENDTAB
0
TABLE
2
UCS
5
7
100
AcDbSymbolTable
70
0
0
ENDTAB
0
TABLE
2
APPID
5
9
100
AcDbSymbolTable
70
2
0
APPID
5
12
100
AcDbSymbolTableRecord
100
AcDbRegAppTableRecord
2
ACAD
70
0
0
ENDTAB
0
TABLE
2
DIMSTYLE
5
A
100
AcDbSymbolTable
70
1
0
ENDTAB
0
TABLE
2
BLOCK_RECORD
5
1
100
AcDbSymbolTable
70
1
0
BLOCK_RECORD
5
1F
100
AcDbSymbolTableRecord
100
AcDbBlockTableRecord
2
*MODEL_SPACE
0
BLOCK_RECORD
5
1B
100
AcDbSymbolTableRecord
100
AcDbBlockTableRecord
2
*PAPER_SPACE
0
ENDTAB
0
ENDSEC
0
SECTION
2
BLOCKS
0
BLOCK
5
20
100
AcDbEntity
100
AcDbBlockBegin
2
*MODEL_SPACE
0
ENDBLK
5
21
100
AcDbEntity
100
AcDbBlockEnd
0
BLOCK
5
1C
100
AcDbEntity
100
AcDbBlockBegin
2
*PAPER_SPACE
0
ENDBLK
5
1D
100
AcDbEntity
100
AcDbBlockEnd
0
ENDSEC
0
SECTION
2
ENTITIES
0
LWPOLYLINE
5
100
100
AcDbEntity
8
0
100
AcDbPolyline
90
24
70
1
43
0.0
10
72.279326161162203
20
-19.204727591542067
42
0.066898946467674414
10
70.028818559727213
20
-20.050349423931927
10
65.810323626625802
20
-18.109596655774496
10
67.004645515578545
20
-22.687963331698043
42
0.10269279900410024
10
65.493156369364172
20
-26.030371787629967
10
61.247817013206252
20
-28.035071835289092
10
65.512706854278179
20
-30.055094305080452
42
0.083676102265724681
10
66.671660932724677
20
-32.821657537130669
10
65.073625291178104
20
-37.253572602978181
10
69.571543954922788
20
-35.686458913750933
42
0.08097192196127094
10
72.257450346633192
20
-36.79021871406264
10
74.289182107411733
20
-41.105068134062712
10
76.340051442341917
20
-36.790799358757631
42
0.07677451424762706
10
78.897342537273062
20
-35.765591394659225
10
83.349087373719058
20
-37.346131450468654
10
81.8637764367041
20
-32.92232245868491
42
0.087925657064035045
10
83.094681087337804
20
-30.023254130318733
10
87.31476969093697
20
-27.997218562737054
10
83.099998126924035
20
-25.999999418854713
42
0.089784409150221525
10
81.84039141360806
20
-23.041929669297975
10
83.33584763293382
20
-18.707544865196049
10
78.889982012944031
20
-20.230056611894561
42
0.077090351734657697
10
76.320676074011942
20
-19.204727591542067
10
74.300001117587058
20
-15.000000223517418
0
LWPOLYLINE
5
101
100
AcDbEntity
8
0
100
AcDbPolyline
90
6
70
1
43
0.0
10
154
20
-47
10
172.76326447202533
20
-25.167071196927559
10
164.00000000000003
20
-26.44558175130301
10
174.00000000000003
20
-12.000000000000002
10
156.04640368307111
20
-30.529083148101552
10
165.0634962877341
20
-29.100699073379115
0
LWPOLYLINE
5
102
100
AcDbEntity
8
0
100
AcDbPolyline
90
24
70
1
43
0.0
10
14.902144022364185
20
-40.044426679328843
10
14.902144022364185
20
-41.544426701680585
10
14.672040983876187
20
-42.527457431253211
10
14.402144014913606
20
-41.544426701680585
10
14.402144014913606
20
-40.044426679328843
10
13.402144000012445
20
-41.044426694230005
10
13.902144007463026
20
-39.544426671878256
10
12.902143992561864
20
-39.544426671878256
10
12.127891721237528
20
-39.286342581436813
10
12.902143992561864
20
-39.044426664427682
10
13.902144007463026
20
-39.044426664427682
10
13.402144000012445
20
-37.544426642075933
10
14.402144014913606
20
-38.544426656977095
10
14.402144014913606
20
-37.044426634625353
10
14.621110948102267
20
-36.046610379021615
10
14.902144022364185
20
-37.044426634625353
10
14.902144022364185
20
-38.544426656977095
10
15.902144037265346
20
-37.544426642075933
10
15.402144029814766
20
-39.044426664427682
10
16.402144044715925
20
-39.044426664427682
10
17.169577668827614
20
-39.300237872464898
10
16.402144044715925
20
-39.544426671878256
10
15.402144029814766
20
-39.544426671878256
10
16.402144044715925
20
-41.044426694230005
0
LWPOLYLINE
5
103
100
AcDbEntity
8
0
100
AcDbPolyline
90
4
70
1
43
0.0
10
0
20
-50
10
176.50000000000003
20
-49.999999999999964
10
176.50000000000003
20
-8.9999999999999929
10
0
20
-8.9999999999999947
0
SPLINE
5
104
100
AcDbEntity
8
0
100
AcDbSpline
70
4
71
5
72
46
73
40
74
0
42
0.000000001
43
0.0000000001
44
0.0000000001
40
0
40
0
40
0
40
0
40
0
40
0
40
0.028571428571428567
40
0.057142857142857134
40
0.085714285714285715
40
0.11428571428571427
40
0.14285714285714285
40
0.17142857142857146
40
0.20000000000000001
40
0.22857142857142854
40
0.25714285714285717
40
0.2857142857142857
40
0.31428571428571433
40
0.34285714285714292
40
0.3714285714285715
40
0.40000000000000008
40
0.42857142857142871
40
0.4571428571428573
40
0.48571428571428582
40
0.51428571428571435
40
0.54285714285714293
40
0.57142857142857151
40
0.60000000000000009
40
0.62857142857142867
40
0.65714285714285725
40
0.68571428571428583
40
0.71428571428571441
40
0.74285714285714299
40
0.77142857142857146
40
0.80000000000000016
40
0.82857142857142863
40
0.85714285714285732
40
0.8857142857142859
40
0.91428571428571459
40
0.94285714285714295
40
0.97142857142857164
40
1
40
1
40
1
40
1
40
1
40
1
41
1
41
1
41
1
41
1
41
1
41
1
41
1
41
1
41
1
41
1
41
1
41
1
41
1
41
1
41
1
41
1
41
1
41
1
41
1
41
1
41
1
41
1
41
1
41
1
41
1
41
1
41
1
41
1
41
1
41
1
41
1
41
1
41
1
41
1
41
1
41
1
41
1
41
1
41
1
41
1
10
41.000000610947609
20
-36.000000536441803
30
0
10
40.682344290229892
20
-36.000000536441803
30
0
10
40.064948811831691
20
-35.993735112138012
30
0
10
39.192607110792608
20
-35.96554076949603
30
0
10
38.136543768466751
20
-35.889243162085144
30
0
10
36.992263186330135
20
-35.723251124891526
30
0
10
36.020290653096005
20
-35.479403836130302
30
0
10
35.216947948357337
20
-35.151588062255541
30
0
10
34.578972918285473
20
-34.736983873484576
30
0
10
34.104228631535449
20
-34.238452780966725
30
0
10
33.79212822415991
20
-33.666496494856595
30
0
10
33.644732371274131
20
-33.042389659230409
30
0
10
33.665010589111851
20
-32.396594574191525
30
0
10
33.853337090775184
20
-31.7641453365483
30
0
10
34.204311373737056
20
-31.180860599948129
30
0
10
34.703786391993987
20
-30.679465988385111
30
0
10
35.324751374158396
20
-30.285122749745774
30
0
10
36.029851672812562
20
-30.015050991493641
30
0
10
36.776080232525736
20
-29.879536476553614
30
0
10
37.518810904438659
20
-29.882459673381753
30
0
10
38.215843804555199
20
-30.021896209440197
30
0
10
38.83202881738449
20
-30.290817652120971
30
0
10
39.341820250270352
20
-30.677134101929632
30
0
10
39.726649711593097
20
-31.16230577870855
30
0
10
39.973142271162686
20
-31.719909177236687
30
0
10
40.071475747079397
20
-32.314766017810612
30
0
10
40.012656675107785
20
-32.900307310825838
30
0
10
39.790749132365583
20
-33.422766722703642
30
0
10
39.409951324052784
20
-33.831802154456547
30
0
10
38.889740829582095
20
-34.088678794319456
30
0
10
38.272316812363883
20
-34.176962719475767
30
0
10
37.624859324887282
20
-34.107802445346024
30
0
10
37.025971041302931
20
-33.908756444869809
30
0
10
36.554292695243774
20
-33.615102345603532
30
0
10
36.277356294793066
20
-33.260948284167576
30
0
10
36.237576975580417
20
-32.86868129636818
30
0
10
36.411171913992639
20
-32.532980342437305
30
0
10
36.659657947215479
20
-32.270612236817271
30
0
10
36.877804296472199
20
-32.090989194100928
30
0
10
37.000000551342957
20
-32.000000476837158
30
0
0
SPLINE
5
105
100
AcDbEntity
8
0
100
AcDbSpline
70
4
71
5
72
31
73
25
74
0
42
0.000000001
43
0.0000000001
44
0.0000000001
40
0
40
0
40
0
40
0
40
0
40
0
40
0.050000000000000003
40
0.10000000000000001
40
0.15000000000000002
40
0.20000000000000001
40
0.25
40
0.29999999999999999
40
0.34999999999999998
40
0.40000000000000002
40
0.45000000000000001
40
0.5
40
0.54999999999999993
40
0.59999999999999998
40
0.65000000000000002
40
0.70000000000000007
40
0.75000000000000022
40
0.80000000000000016
40
0.8500000000000002
40
0.90000000000000024
40
0.9500000000000004
40
1
40
1
40
1
40
1
40
1
40
1
41
1
41
1
41
1
41
1
41
1
41
1
41
1
41
1
41
1
41
1
41
1
41
1
41
1
41
1
41
1
41
1
41
1
41
1
41
1
41
1
41
1
41
1
41
1
41
1
41
1
10
137.46772641810801
20
-30.913466365918417
30
0
10
137.40504411695821
20
-30.913403926771572
30
0
10
137.27962238723023
20
-30.938740544835301
30
0
10
137.09421704572509
20
-31.053134372235011
30
0
10
136.86409363671007
20
-31.346966902787447
30
0
10
136.63205807584143
20
-31.882465150187773
30
0
10
136.47876735430395
20
-32.497953149613082
30
0
10
136.42099705867562
20
-33.102520326998771
30
0
10
136.46705335500471
20
-33.618677441286373
30
0
10
136.61362655931231
20
-34.003472039081352
30
0
10
136.845212182784
20
-34.25427578851685
30
0
10
137.13802882841088
20
-34.388345128412496
30
0
10
137.46269827570032
20
-34.428866765891605
30
0
10
137.78722922752843
20
-34.388641180648492
30
0
10
138.07979224822478
20
-34.254913170358627
30
0
10
138.3113439607302
20
-34.004483657684567
30
0
10
138.4584524476945
20
-33.620053141543352
30
0
10
138.50583906536767
20
-33.104167605662091
30
0
10
138.45010712093062
20
-32.499669765689518
30
0
10
138.29920610115695
20
-31.884019752121695
30
0
10
138.06942907004765
20
-31.348142165165772
30
0
10
137.84060738876346
20
-31.053874819530094
30
0
10
137.65571619412862
20
-30.939115179716307
30
0
10
137.53040871925771
20
-30.913528805065237
30
0
10
137.46772641810801
20
-30.913466365918417
30
0
0
SPLINE
5
106
100
AcDbEntity
8
0
100
AcDbSpline
70
4
71
5
72
76
73
70
74
0
42
0.000000001
43
0.0000000001
44
0.0000000001
40
0
40
0
40
0
40
0
40
0
40
0
40
0.015384615384615384
40
0.030769230769230767
40
0.046153846153846163
40
0.061538461538461535
40
0.076923076923076927
40
0.092307692307692327
40
0.1076923076923077
40
0.12307692307692307
40
0.13846153846153847
40
0.15384615384615385
40
0.16923076923076924
40
0.18461538461538465
40
0.20000000000000001
40
0.2153846153846154
40
0.23076923076923081
40
0.24615384615384614
40
0.26153846153846155
40
0.27692307692307688
40
0.29230769230769232
40
0.30769230769230771
40
0.32307692307692309
40
0.33846153846153848
40
0.35384615384615392
40
0.36923076923076931
40
0.38461538461538464
40
0.40000000000000002
40
0.41538461538461535
40
0.43076923076923079
40
0.44615384615384612
40
0.46153846153846162
40
0.47692307692307701
40
0.49230769230769228
40
0.50769230769230766
40
0.52307692307692299
40
0.53846153846153832
40
0.55384615384615365
40
0.56923076923076898
40
0.58461538461538431
40
0.59999999999999964
40
0.61538461538461497
40
0.6307692307692303
40
0.64615384615384563
40
0.66153846153846096
40
0.67692307692307618
40
0.69230769230769162
40
0.70769230769230695
40
0.72307692307692217
40
0.73846153846153761
40
0.75384615384615306
40
0.76923076923076816
40
0.7846153846153836
40
0.79999999999999893
40
0.81538461538461415
40
0.83076923076922959
40
0.84615384615384504
40
0.86153846153846025
40
0.87692307692307547
40
0.89230769230769091
40
0.90769230769230624
40
0.92307692307692157
40
0.93846153846153679
40
0.95384615384615223
40
0.96923076923076756
40
0.98461538461538278
40
1
40
1
40
1
40
1
40
1
40
1
41
1
41
1
41
1
41
1
41
1
41
1
41
1
41
1
41
1
41
1
41
1
41
1
41
1
41
1
41
1
41
1
41
1
41
1
41
1
41
1
41
1
41
1
41
1
41
1
41
1
41
1
41
1
41
1
41
1
41
1
41
1
41
1
41
1
41
1
41
1
41
1
41
1
41
1
41
1
41
1
41
1
41
1
41
1
41
1
41
1
41
1
41
1
41
1
41
1
41
1
41
1
41
1
41
1
41
1
41
1
41
1
41
1
41
1
41
1
41
1
41
1
41
1
41
1
41
1
41
1
41
1
41
1
41
1
41
1
41
1
10
111.59609701419666
20
-35.000000521540706
30
0
10
111.82496625943116
20
-35.011155965725209
30
0
10
112.27031929877
20
-35.017559459375811
30
0
10
112.90119249565279
20
-34.979442445152564
30
0
10
113.66801547388883
20
-34.833139078369463
30
0
10
114.50266311679516
20
-34.492390441897939
30
0
10
115.21378174104382
20
-33.997949533193925
30
0
10
115.8022898334071
20
-33.358433484271643
30
0
10
116.26991893472747
20
-32.588507149133221
30
0
10
116.61943947479308
20
-31.710327020847124
30
0
10
116.85494786234671
20
-30.755444827446254
30
0
10
116.98145548299861
20
-29.76141299653689
30
0
10
117.00439310738588
20
-28.767751335666937
30
0
10
116.92916207434067
20
-27.812241201551341
30
0
10
116.76063392058715
20
-26.926868214021006
30
0
10
116.50274937296892
20
-26.134402063689723
30
0
10
116.15788628135498
20
-25.443480450474411
30
0
10
115.72700244120236
20
-24.848657577608012
30
0
10
115.2108619963375
20
-24.337338906068329
30
0
10
114.61100878760064
20
-23.895168096524291
30
0
10
113.9308205036082
20
-23.511726858322611
30
0
10
113.17658638151853
20
-23.186830692129806
30
0
10
112.35841737706751
20
-22.934369107349909
30
0
10
111.49042730431412
20
-22.774757141430388
30
0
10
110.590949385587
20
-22.729146627318009
30
0
10
109.68290385347443
20
-22.812720741578488
30
0
10
108.79374841224363
20
-23.028903721697009
30
0
10
107.95647233898761
20
-23.361883114884453
30
0
10
107.20766775352146
20
-23.773796630088487
30
0
10
106.57842092188993
20
-24.219602239260674
30
0
10
106.08329162302709
20
-24.658624872336038
30
0
10
105.71630445459114
20
-25.068540344627323
30
0
10
105.4293130792837
20
-25.455705195510664
30
0
10
105.15794242195533
20
-25.87441408809368
30
0
10
104.86337977520085
20
-26.398493794253611
30
0
10
104.52417359579698
20
-27.080619538365731
30
0
10
104.14546251950705
20
-27.921280889763072
30
0
10
103.76336113851337
20
-28.821151815467832
30
0
10
103.4390519920904
20
-29.59019819113054
30
0
10
103.21182007432249
20
-30.051023467711371
30
0
10
103.09353202801462
20
-30.084000293293069
30
0
10
102.97866879020894
20
-29.771363200643979
30
0
10
102.77716844939036
20
-29.290953131019268
30
0
10
102.51500342040153
20
-28.74457625657886
30
0
10
102.23216558741072
20
-28.218883870906094
30
0
10
101.94678706073766
20
-27.75780793182048
30
0
10
101.62579328649578
20
-27.378148073872374
30
0
10
101.22285823676802
20
-27.078635546106256
30
0
10
100.69473970879974
20
-26.852391212157375
30
0
10
100.03169018221649
20
-26.700277193589624
30
0
10
99.25810025907154
20
-26.632565189823552
30
0
10
98.418274429783779
20
-26.662475286109665
30
0
10
97.566275164683816
20
-26.802053317881075
30
0
10
96.754702902341165
20
-27.057450305576989
30
0
10
96.022533964700543
20
-27.423558259139295
30
0
10
95.387864108688007
20
-27.881778248100364
30
0
10
94.854216929933585
20
-28.406378278380799
30
0
10
94.414238491085683
20
-28.969229623278238
30
0
10
94.054368732746042
20
-29.545091322688361
30
0
10
93.759180044979686
20
-30.116871374454064
30
0
10
93.515573467848583
20
-30.68031629744349
30
0
10
93.31253404016536
20
-31.23986551747841
30
0
10
93.141212795551382
20
-31.804966949525539
30
0
10
92.994860482301078
20
-32.386486623446395
30
0
10
92.868891107002597
20
-32.992436511012734
30
0
10
92.760558953754199
20
-33.627384218909185
30
0
10
92.686888835901172
20
-34.160405481566855
30
0
10
92.638733132964234
20
-34.574594771311943
30
0
10
92.609782148348344
20
-34.857130421649799
30
0
10
92.596094868429446
20
-35.000000521540699
30
0
0
LINE
5
107
100
AcDbEntity
8
0
100
AcDbLine
10
122.59609486842945
20
-30.000000521540695
30
0
11
141.59609701419663
21
-30.000000521540706
31
0
0
LINE
5
108
100
AcDbEntity
8
0
100
AcDbLine
10
55.000000819563866
20
-36.000000536441803
30
0
11
41.000000610947609
21
-36.000000536441803
31
0
0
LINE
5
109
100
AcDbEntity
8
0
100
AcDbLine
10
55.792458843557391
20
-35.000000521540642
30
0
11
41.50000061839819
21
-35.000000521540642
31
0
0
SPLINE
5
110
100
AcDbEntity
8
0
100
AcDbSpline
70
4
71
5
72
31
73
25
74
0
42
0.000000001
43
0.0000000001
44
0.0000000001
40
0
40
0
40
0
40
0
40
0
40
0
40
0.050000000000000003
40
0.10000000000000001
40
0.15000000000000002
40
0.20000000000000001
40
0.25
40
0.29999999999999999
40
0.34999999999999998
40
0.40000000000000002
40
0.45000000000000001
40
0.5
40
0.54999999999999993
40
0.59999999999999998
40
0.65000000000000002
40
0.70000000000000007
40
0.75000000000000022
40
0.80000000000000016
40
0.8500000000000002
40
0.90000000000000024
40
0.9500000000000004
40
1
40
1
40
1
40
1
40
1
40
1
41
1
41
1
41
1
41
1
41
1
41
1
41
1
41
1
41
1
41
1
41
1
41
1
41
1
41
1
41
1
41
1
41
1
41
1
41
1
41
1
41
1
41
1
41
1
41
1
41
1
10
129.91224904628621
20
-31.986905776913872
30
0
10
129.84956674513666
20
-31.986843337766757
30
0
10
129.72414501540899
20
-32.012179955829922
30
0
10
129.5387396739045
20
-32.1265737832288
30
0
10
129.30861626488957
20
-32.420406313780504
30
0
10
129.07658070402053
20
-32.955904561180766
30
0
10
128.92328998248243
20
-33.571392560606824
30
0
10
128.86551968685399
20
-34.175959737993693
30
0
10
128.91157598318279
20
-34.692116852282233
30
0
10
129.05814918749007
20
-35.076911450077645
30
0
10
129.28973481096176
20
-35.32771519951315
30
0
10
129.58255145658893
20
-35.46178453940847
30
0
10
129.9072209038786
20
-35.502306176887046
30
0
10
130.2317518557067
20
-35.46208059164347
30
0
10
130.52431487640274
20
-35.328352581353244
30
0
10
130.75586658890816
20
-35.077923068679212
30
0
10
130.90297507587277
20
-34.693492552538451
30
0
10
130.95036169354594
20
-34.177607016658051
30
0
10
130.89462974910856
20
-33.57310917668633
30
0
10
130.74372872933426
20
-32.957459163119161
30
0
10
130.51395169822459
20
-32.421581576163305
30
0
10
130.28513001694068
20
-32.127314230527098
30
0
10
130.10023882230624
20
-32.012554590712597
30
0
10
129.9749313474357
20
-31.986968216060987
30
0
10
129.91224904628621
20
-31.986905776913872
30
0
0
LINE
5
111
100
AcDbEntity
8
0
100
AcDbLine
10
92.596094868429446
20
-35.000000521540699
30
0
11
111.59609701419666
21
-35.000000521540706
31
0
0
SPLINE
5
112
100
AcDbEntity
8
0
100
AcDbSpline
70
4
71
5
72
76
73
70
74
0
42
0.000000001
43
0.0000000001
44
0.0000000001
40
0
40
0
40
0
40
0
40
0
40
0
40
0.015384615384615384
40
0.030769230769230767
40
0.046153846153846163
40
0.061538461538461535
40
0.076923076923076927
40
0.092307692307692327
40
0.1076923076923077
40
0.12307692307692307
40
0.13846153846153847
40
0.15384615384615385
40
0.16923076923076924
40
0.18461538461538465
40
0.20000000000000001
40
0.2153846153846154
40
0.23076923076923081
40
0.24615384615384614
40
0.26153846153846155
40
0.27692307692307688
40
0.29230769230769232
40
0.30769230769230771
40
0.32307692307692309
40
0.33846153846153848
40
0.35384615384615392
40
0.36923076923076931
40
0.38461538461538464
40
0.40000000000000002
40
0.41538461538461535
40
0.43076923076923079
40
0.44615384615384612
40
0.46153846153846162
40
0.47692307692307701
40
0.49230769230769228
40
0.50769230769230766
40
0.52307692307692299
40
0.53846153846153832
40
0.55384615384615365
40
0.56923076923076898
40
0.58461538461538431
40
0.59999999999999964
40
0.61538461538461497
40
0.6307692307692303
40
0.64615384615384563
40
0.66153846153846096
40
0.67692307692307618
40
0.69230769230769162
40
0.70769230769230695
40
0.72307692307692217
40
0.73846153846153761
40
0.75384615384615306
40
0.76923076923076816
40
0.7846153846153836
40
0.79999999999999893
40
0.81538461538461415
40
0.83076923076922959
40
0.84615384615384504
40
0.86153846153846025
40
0.87692307692307547
40
0.89230769230769091
40
0.90769230769230624
40
0.92307692307692157
40
0.93846153846153679
40
0.95384615384615223
40
0.96923076923076756
40
0.98461538461538278
40
1
40
1
40
1
40
1
40
1
40
1
41
1
41
1
41
1
41
1
41
1
41
1
41
1
41
1
41
1
41
1
41
1
41
1
41
1
41
1
41
1
41
1
41
1
41
1
41
1
41
1
41
1
41
1
41
1
41
1
41
1
41
1
41
1
41
1
41
1
41
1
41
1
41
1
41
1
41
1
41
1
41
1
41
1
41
1
41
1
41
1
41
1
41
1
41
1
41
1
41
1
41
1
41
1
41
1
41
1
41
1
41
1
41
1
41
1
41
1
41
1
41
1
41
1
41
1
41
1
41
1
41
1
41
1
41
1
41
1
41
1
41
1
41
1
41
1
41
1
41
1
10
21.59609701419663
20
-30.000000521540706
30
0
10
21.824966259528832
20
-30.011155965731504
30
0
10
22.270319299039802
20
-30.017559459393176
30
0
10
22.901192496110589
20
-29.979442445181952
30
0
10
23.668015474465069
20
-29.833139078406301
30
0
10
24.502663117343282
20
-29.492390441932788
30
0
10
25.213781741445818
20
-28.99794953321927
30
0
10
25.802289833608327
20
-28.358433484284209
30
0
10
26.269918934732992
20
-27.588507149133509
30
0
10
26.619439474653358
20
-26.710327020838491
30
0
10
26.854947862131304
20
-25.755444827433092
30
0
10
26.981455482775107
20
-24.761412996523312
30
0
10
27.004393107206415
20
-23.767751335656012
30
0
10
26.929162074233734
20
-22.812241201544797
30
0
10
26.76063392055633
20
-21.926868214019066
30
0
10
26.502749372996455
20
-21.134402063691414
30
0
10
26.157886281412729
20
-20.443480450478067
30
0
10
25.727002441263171
20
-19.848657577611874
30
0
10
25.210861996381972
20
-19.337338906071167
30
0
10
24.611008787619401
20
-18.895168096525484
30
0
10
23.930820503601989
20
-18.511726858322227
30
0
10
23.176586381495646
20
-18.186830692128328
30
0
10
22.35841737703884
20
-17.934369107347997
30
0
10
21.490427304288989
20
-17.774757141428658
30
0
10
20.590949385571111
20
-17.729146627316872
30
0
10
19.682903853468915
20
-17.812720741578058
30
0
10
18.793748412246185
20
-18.028903721697198
30
0
10
17.956472338993301
20
-18.361883114884911
30
0
10
17.2076677535266
20
-18.77379663008891
30
0
10
16.578420921892587
20
-19.219602239260908
30
0
10
16.0832916230273
20
-19.658624872336048
30
0
10
15.716304454590855
20
-20.068540344627301
30
0
10
15.429313079284057
20
-20.455705195510689
30
0
10
15.157942421955992
20
-20.874414088093754
30
0
10
14.863379775201402
20
-21.398493794253675
30
0
10
14.524173595797166
20
-22.080619538365763
30
0
10
14.145462519506848
20
-22.92128088976304
30
0
10
13.76336113851276
20
-23.821151815467715
30
0
10
13.439051992090087
20
-24.590198191130455
30
0
10
13.211820074322493
20
-25.051023467711381
30
0
10
13.093532028014696
20
-25.084000293293069
30
0
10
12.978668790208864
20
-24.771363200643979
30
0
10
12.777168449390535
20
-24.290953131019268
30
0
10
12.515003420401856
20
-23.744576256578828
30
0
10
12.232165587410575
20
-23.218883870906094
30
0
10
11.946787060736506
20
-22.757807931820523
30
0
10
11.625793286494062
20
-22.378148073872413
30
0
10
11.222858236766939
20
-22.078635546106288
30
0
10
10.694739708800881
20
-21.852391212157329
30
0
10
10.031690182220894
20
-21.70027719358956
30
0
10
9.2581002590787556
20
-21.632565189823488
30
0
10
8.4182744297915288
20
-21.662475286109629
30
0
10
7.5662751646886584
20
-21.80205331788105
30
0
10
6.7547029023396687
20
-22.057450305577007
30
0
10
6.0225339646905152
20
-22.423558259139334
30
0
10
5.3878641086709287
20
-22.881778248100449
30
0
10
4.8542169299144913
20
-23.40637827838091
30
0
10
4.4142384910721919
20
-23.969229623278348
30
0
10
4.0543687327461519
20
-24.545091322688357
30
0
10
3.7591800449978541
20
-25.116871374453922
30
0
10
3.515573467880869
20
-25.680316297443255
30
0
10
3.3125340401984271
20
-26.239865517478172
30
0
10
3.141212795565945
20
-26.804966949525451
30
0
10
2.9948604822781721
20
-27.386486623446551
30
0
10
2.8688911069363221
20
-27.992436511013135
30
0
10
2.7605589536596922
20
-28.627384218909722
30
0
10
2.6868888358152598
20
-29.160405481567309
30
0
10
2.6387331329103647
20
-29.574594771312217
30
0
10
2.6097821483283399
20
-29.857130421649899
30
0
10
2.5960948684294349
20
-30.000000521540695
30
0
0
SPLINE
5
113
100
AcDbEntity
8
0
100
AcDbSpline
70
4
71
5
72
76
73
70
74
0
42
0.000000001
43
0.0000000001
44
0.0000000001
40
0
40
0
40
0
40
0
40
0
40
0
40
0.015384615384615384
40
0.030769230769230767
40
0.046153846153846163
40
0.061538461538461535
40
0.076923076923076927
40
0.092307692307692327
40
0.1076923076923077
40
0.12307692307692307
40
0.13846153846153847
40
0.15384615384615385
40
0.16923076923076924
40
0.18461538461538465
40
0.20000000000000001
40
0.2153846153846154
40
0.23076923076923081
40
0.24615384615384614
40
0.26153846153846155
40
0.27692307692307688
40
0.29230769230769232
40
0.30769230769230771
40
0.32307692307692309
40
0.33846153846153848
40
0.35384615384615392
40
0.36923076923076931
40
0.38461538461538464
40
0.40000000000000002
40
0.41538461538461535
40
0.43076923076923079
40
0.44615384615384612
40
0.46153846153846162
40
0.47692307692307701
40
0.49230769230769228
40
0.50769230769230766
40
0.52307692307692299
40
0.53846153846153832
40
0.55384615384615365
40
0.56923076923076898
40
0.58461538461538431
40
0.59999999999999964
40
0.61538461538461497
40
0.6307692307692303
40
0.64615384615384563
40
0.66153846153846096
40
0.67692307692307618
40
0.69230769230769162
40
0.70769230769230695
40
0.72307692307692217
40
0.73846153846153761
40
0.75384615384615306
40
0.76923076923076816
40
0.7846153846153836
40
0.79999999999999893
40
0.81538461538461415
40
0.83076923076922959
40
0.84615384615384504
40
0.86153846153846025
40
0.87692307692307547
40
0.89230769230769091
40
0.90769230769230624
40
0.92307692307692157
40
0.93846153846153679
40
0.95384615384615223
40
0.96923076923076756
40
0.98461538461538278
40
1
40
1
40
1
40
1
40
1
40
1
41
1
41
1
41
1
41
1
41
1
41
1
41
1
41
1
41
1
41
1
41
1
41
1
41
1
41
1
41
1
41
1
41
1
41
1
41
1
41
1
41
1
41
1
41
1
41
1
41
1
41
1
41
1
41
1
41
1
41
1
41
1
41
1
41
1
41
1
41
1
41
1
41
1
41
1
41
1
41
1
41
1
41
1
41
1
41
1
41
1
41
1
41
1
41
1
41
1
41
1
41
1
41
1
41
1
41
1
41
1
41
1
41
1
41
1
41
1
41
1
41
1
41
1
41
1
41
1
41
1
41
1
41
1
41
1
41
1
41
1
10
141.59609701419663
20
-30.000000521540706
30
0
10
141.82496625942997
20
-30.011155965731504
30
0
10
142.2703192987664
20
-30.017559459393176
30
0
10
142.9011924956458
20
-29.979442445181952
30
0
10
143.66801547387811
20
-29.833139078406301
30
0
10
144.502663116782
20
-29.492390441932788
30
0
10
145.21378174103182
20
-28.99794953321927
30
0
10
145.80228983339958
20
-28.358433484284209
30
0
10
146.26991893472643
20
-27.588507149133509
30
0
10
146.61943947479969
20
-26.710327020838491
30
0
10
146.8549478623591
20
-25.755444827433092
30
0
10
146.98145548301366
20
-24.761412996523312
30
0
10
147.00439310739989
20
-23.767751335656012
30
0
10
146.92916207435019
20
-22.812241201544797
30
0
10
146.76063392059052
20
-21.926868214019066
30
0
10
146.50274937296621
20
-21.134402063691414
30
0
10
146.15788628134828
20
-20.443480450478067
30
0
10
145.72700244119426
20
-19.848657577611874
30
0
10
145.21086199633112
20
-19.337338906071167
30
0
10
144.61100878759791
20
-18.895168096525484
30
0
10
143.93082050360911
20
-18.511726858322227
30
0
10
143.17658638152182
20
-18.186830692128328
30
0
10
142.35841737707182
20
-17.934369107347997
30
0
10
141.49042730431802
20
-17.774757141428658
30
0
10
140.59094938558968
20
-17.729146627316872
30
0
10
139.68290385347547
20
-17.812720741578058
30
0
10
138.79374841224322
20
-18.028903721697198
30
0
10
137.95647233898634
20
-18.361883114884911
30
0
10
137.20766775352013
20
-18.77379663008891
30
0
10
136.57842092188915
20
-19.219602239260908
30
0
10
136.08329162302698
20
-19.658624872336048
30
0
10
135.71630445459121
20
-20.068540344627301
30
0
10
135.42931307928353
20
-20.455705195510689
30
0
10
135.15794242195514
20
-20.874414088093754
30
0
10
134.8633797752008
20
-21.398493794253675
30
0
10
134.52417359579687
20
-22.080619538365763
30
0
10
134.14546251950713
20
-22.92128088976304
30
0
10
133.76336113851323
20
-23.821151815467715
30
0
10
133.43905199209021
20
-24.590198191130455
30
0
10
133.21182007432245
20
-25.051023467711381
30
0
10
133.09353202801472
20
-25.084000293293069
30
0
10
132.97866879020887
20
-24.771363200643979
30
0
10
132.77716844939005
20
-24.290953131019268
30
0
10
132.51500342040123
20
-23.744576256578828
30
0
10
132.23216558741086
20
-23.218883870906094
30
0
10
131.94678706073853
20
-22.757807931820523
30
0
10
131.62579328649701
20
-22.378148073872413
30
0
10
131.22285823676887
20
-22.078635546106288
30
0
10
130.69473970879878
20
-21.852391212157329
30
0
10
130.03169018221294
20
-21.70027719358956
30
0
10
129.25810025906586
20
-21.632565189823488
30
0
10
128.41827442977768
20
-21.662475286109629
30
0
10
127.56627516467987
20
-21.80205331788105
30
0
10
126.75470290234243
20
-22.057450305577007
30
0
10
126.02253396470829
20
-22.423558259139334
30
0
10
125.38786410870117
20
-22.881778248100449
30
0
10
124.85421692994814
20
-23.40637827838091
30
0
10
124.41423849109583
20
-23.969229623278348
30
0
10
124.05436873274593
20
-24.545091322688357
30
0
10
123.75918004496626
20
-25.116871374453922
30
0
10
123.51557346782501
20
-25.680316297443255
30
0
10
123.31253404014149
20
-26.239865517478172
30
0
10
123.14121279554115
20
-26.804966949525451
30
0
10
122.99486048231735
20
-27.386486623446551
30
0
10
122.86889110704892
20
-27.992436511013135
30
0
10
122.7605589538195
20
-28.627384218909722
30
0
10
122.68688883596013
20
-29.160405481567309
30
0
10
122.6387331330011
20
-29.574594771312217
30
0
10
122.60978214836207
20
-29.857130421649899
30
0
10
122.59609486842945
20
-30.000000521540695
30
0
0
LINE
5
114
100
AcDbEntity
8
0
100
AcDbLine
10
55.000000819563866
20
-36.000000536441803
30
0
11
55.792458843557391
21
-35.000000521540642
31
0
0
LINE
5
115
100
AcDbEntity
8
0
100
AcDbLine
10
2.5960948684294349
20
-30.000000521540695
30
0
11
21.59609701419663
21
-30.000000521540706
31
0
0
SPLINE
5
116
100
AcDbEntity
8
0
100
AcDbSpline
70
4
71
5
72
31
73
25
74
0
42
0.000000001
43
0.0000000001
44
0.0000000001
40
0
40
0
40
0
40
0
40
0
40
0
40
0.050000000000000003
40
0.10000000000000001
40
0.15000000000000002
40
0.20000000000000001
40
0.25
40
0.29999999999999999
40
0.34999999999999998
40
0.40000000000000002
40
0.45000000000000001
40
0.5
40
0.54999999999999993
40
0.59999999999999998
40
0.65000000000000002
40
0.70000000000000007
40
0.75000000000000022
40
0.80000000000000016
40
0.8500000000000002
40
0.90000000000000024
40
0.9500000000000004
40
1
40
1
40
1
40
1
40
1
40
1
41
1
41
1
41
1
41
1
41
1
41
1
41
1
41
1
41
1
41
1
41
1
41
1
41
1
41
1
41
1
41
1
41
1
41
1
41
1
41
1
41
1
41
1
41
1
41
1
41
1
10
134.08983308483192
20
-35.05512405168016
30
0
10
134.02715078368226
20
-35.05506161253269
30
0
10
133.90172905395434
20
-35.080398230595158
30
0
10
133.71632371244968
20
-35.194792057992956
30
0
10
133.48620030343443
20
-35.488624588543821
30
0
10
133.25416474256565
20
-36.024122835944119
30
0
10
133.10087402102778
20
-36.639610835371109
30
0
10
133.04310372539945
20
-37.244178012759278
30
0
10
133.08916002172867
20
-37.760335127049068
30
0
10
133.23573322603659
20
-38.145129724845205
30
0
10
133.46731884950822
20
-38.395933474280696
30
0
10
133.76013549513493
20
-38.530002814175475
30
0
10
134.08480494242423
20
-38.570524451653363
30
0
10
134.40933589425219
20
-38.530298866409133
30
0
10
134.70189891494823
20
-38.396570856118529
30
0
10
134.93345062745351
20
-38.146141343444562
30
0
10
135.08055911441832
20
-37.761710827304341
30
0
10
135.12794573209186
20
-37.245825291424964
30
0
10
135.0722137876549
20
-36.641327451454345
30
0
10
134.92131276788095
20
-36.025677437887978
30
0
10
134.69153573677133
20
-35.489799850932229
30
0
10
134.46271405548731
20
-35.195532505295326
30
0
10
134.27782286085241
20
-35.080772865479943
30
0
10
134.15251538598164
20
-35.05518649082763
30
0
10
134.08983308483192
20
-35.05512405168016
30
0
0
LWPOLYLINE
5
117
100
AcDbEntity
8
0
100
AcDbPolyline
90
24
70
1
43
0.0
10
7.2569922946087351
20
-35.437764396484454
10
6.7569922871581545
20
-33.937764374132712
10
7.7569923020593157
20
-34.937764389033873
10
7.7569923020593157
20
-33.437764366682131
10
7.9759592352479736
20
-32.439948111078401
10
8.2569923095098972
20
-33.437764366682131
10
8.2569923095098972
20
-34.937764389033873
10
9.2569923244110583
20
-33.937764374132712
10
8.7569923169604778
20
-35.437764396484454
10
9.7569923318616407
20
-35.437764396484454
10
10.524425955973324
20
-35.693575604521683
10
9.7569923318616407
20
-35.937764403935034
10
8.7569923169604778
20
-35.937764403935034
10
9.7569923318616407
20
-37.437764426286776
10
8.2569923095098972
20
-36.437764411385615
10
8.2569923095098972
20
-37.937764433737357
10
8.0268892710218935
20
-38.920795163310004
10
7.7569923020593157
20
-37.937764433737357
10
7.7569923020593157
20
-36.437764411385615
10
6.7569922871581545
20
-37.437764426286776
10
7.2569922946087351
20
-35.937764403935034
10
6.2569922797075739
20
-35.937764403935034
10
5.4827400083832414
20
-35.679680313493584
10
6.2569922797075739
20
-35.437764396484454
0
LWPOLYLINE
5
118
100
AcDbEntity
8
0
100
AcDbPolyline
90
24
70
1
43
0.0
10
20.256794408766638
20
-33.529683914562881
10
20.256794408766638
20
-32.029683892211139
10
20.475761341955302
20
-31.031867636607412
10
20.756794416217211
20
-32.029683892211139
10
20.756794416217211
20
-33.529683914562881
10
21.756794431118372
20
-32.52968389966172
10
21.256794423667799
20
-34.029683922013461
10
22.25679443856896
20
-34.029683922013461
10
23.024228062680653
20
-34.285495130050691
10
22.25679443856896
20
-34.529683929464042
10
21.256794423667799
20
-34.529683929464042
10
22.25679443856896
20
-36.02968395181577
10
20.756794416217211
20
-35.029683936914623
10
20.756794416217211
20
-36.529683959266364
10
20.526691377729215
20
-37.512714688839004
10
20.256794408766638
20
-36.529683959266364
10
20.256794408766638
20
-35.029683936914623
10
19.256794393865484
20
-36.02968395181577
10
19.756794401316053
20
-34.529683929464042
10
18.756794386414896
20
-34.529683929464042
10
17.98254211509056
20
-34.271599839022606
10
18.756794386414896
20
-34.029683922013461
10
19.756794401316053
20
-34.029683922013461
10
19.256794393865484
20
-32.52968389966172
0
SPLINE
5
119
100
AcDbEntity
8
0
100
AcDbSpline
70
4
71
5
72
46
73
40
74
0
42
0.000000001
43
0.0000000001
44
0.0000000001
40
0
40
0
40
0
40
0
40
0
40
0
40
0.028571428571428567
40
0.057142857142857134
40
0.085714285714285715
40
0.11428571428571427
40
0.14285714285714285
40
0.17142857142857146
40
0.20000000000000001
40
0.22857142857142854
40
0.25714285714285717
40
0.2857142857142857
40
0.31428571428571433
40
0.34285714285714292
40
0.3714285714285715
40
0.40000000000000008
40
0.42857142857142871
40
0.4571428571428573
40
0.48571428571428582
40
0.51428571428571435
40
0.54285714285714293
40
0.57142857142857151
40
0.60000000000000009
40
0.62857142857142867
40
0.65714285714285725
40
0.68571428571428583
40
0.71428571428571441
40
0.74285714285714299
40
0.77142857142857146
40
0.80000000000000016
40
0.82857142857142863
40
0.85714285714285732
40
0.8857142857142859
40
0.91428571428571459
40
0.94285714285714295
40
0.97142857142857164
40
1
40
1
40
1
40
1
40
1
40
1
41
1
41
1
41
1
41
1
41
1
41
1
41
1
41
1
41
1
41
1
41
1
41
1
41
1
41
1
41
1
41
1
41
1
41
1
41
1
41
1
41
1
41
1
41
1
41
1
41
1
41
1
41
1
41
1
41
1
41
1
41
1
41
1
41
1
41
1
41
1
41
1
41
1
41
1
41
1
41
1
10
41.50000061839819
20
-35.000000521540642
30
0
10
41.254228835622158
20
-35.000000521540642
30
0
10
40.772526375060608
20
-34.997147293389126
30
0
10
40.079496038046784
20
-34.984307716795783
30
0
10
39.215627150414001
20
-34.949039999476383
30
0
10
38.242910683302362
20
-34.868701084294514
30
0
10
37.386567608883034
20
-34.744371877595405
30
0
10
36.656682830748046
20
-34.568274372227286
30
0
10
36.062550881955751
20
-34.334312903760704
30
0
10
35.611101037359909
20
-34.039731510331961
30
0
10
35.305161820853861
20
-33.686970216929808
30
0
10
35.14202439079115
20
-33.28512424957389
30
0
10
35.11115879596025
20
-32.852485426204822
30
0
10
35.195469330668743
20
-32.414494596143086
30
0
10
35.374481477938254
20
-31.99918255781904
30
0
10
35.627038821094558
20
-31.633221609135362
30
0
10
35.933879376733444
20
-31.338120346587111
30
0
10
36.281026064928241
20
-31.125322375703917
30
0
10
36.658759818993616
20
-30.997095067827715
30
0
10
37.058546310918814
20
-30.950094185411952
30
0
10
37.470574545807679
20
-30.978079395375854
30
0
10
37.881139885345377
20
-31.074847463644893
30
0
10
38.269791796938172
20
-31.23734467852487
30
0
10
38.612056011845546
20
-31.462733733800626
30
0
10
38.882590769775213
20
-31.744811309208714
30
0
10
39.058141350758632
20
-32.070978274224231
30
0
10
39.120683260053219
20
-32.418154982099772
30
0
10
39.060262544137899
20
-32.75153485346916
30
0
10
38.877199408456505
20
-33.033938300867518
30
0
10
38.584117473607066
20
-33.232995674066721
30
0
10
38.208828038242459
20
-33.33019134543224
30
0
10
37.794822824764353
20
-33.326204726833403
30
0
10
37.392831433149674
20
-33.233519703990048
30
0
10
37.053475010826702
20
-33.070824650581073
30
0
10
36.820185407236259
20
-32.857202858496692
30
0
10
36.720259670284989
20
-32.605338981586044
30
0
10
36.757165209294783
20
-32.378149815987584
30
0
10
36.852366738789698
20
-32.194304893508885
30
0
10
36.945795430794725
20
-32.065764565215567
30
0
10
37.000000551342957
20
-32.000000476837158
30
0
0
SPLINE
5
120
100
AcDbEntity
8
0
100
AcDbSpline
70
4
71
5
72
31
73
25
74
0
42
0.000000001
43
0.0000000001
44
0.0000000001
40
0
40
0
40
0
40
0
40
0
40
0
40
0.050000000000000003
40
0.10000000000000001
40
0.15000000000000002
40
0.20000000000000001
40
0.25
40
0.29999999999999999
40
0.34999999999999998
40
0.40000000000000002
40
0.45000000000000001
40
0.5
40
0.54999999999999993
40
0.59999999999999998
40
0.65000000000000002
40
0.70000000000000007
40
0.75000000000000022
40
0.80000000000000016
40
0.8500000000000002
40
0.90000000000000024
40
0.9500000000000004
40
1
40
1
40
1
40
1
40
1
40
1
41
1
41
1
41
1
41
1
41
1
41
1
41
1
41
1
41
1
41
1
41
1
41
1
41
1
41
1
41
1
41
1
41
1
41
1
41
1
41
1
41
1
41
1
41
1
41
1
41
1
10
49.000000730156898
20
-31.600000448524952
30
0
10
48.968823133834896
20
-31.60000042330941
30
0
10
48.906467915865584
20
-31.607218483556245
30
0
10
48.81441787271762
20
-31.639699907293249
30
0
10
48.7005815051361
20
-31.724030963859143
30
0
10
48.586817674318688
20
-31.883833043869391
30
0
10
48.513022358392099
20
-32.078769258486645
30
0
10
48.487148695920972
20
-32.28723142617698
30
0
10
48.512439957091338
20
-32.488055020148806
30
0
10
48.585937419443184
20
-32.66347907363064
30
0
10
48.699740341436922
20
-32.79936168117996
30
0
10
48.84237215409776
20
-32.885260501686318
30
0
10
48.999998619782588
20
-32.914661148154629
30
0
10
49.157625029842649
20
-32.885260735532697
30
0
10
49.300256737118282
20
-32.79936212823096
30
0
10
49.414059633317322
20
-32.663479695244639
30
0
10
49.487557290911326
20
-32.488055761423439
30
0
10
49.512849069319806
20
-32.287232219536563
30
0
10
49.486976246143385
20
-32.07877002486822
30
0
10
49.413181948851275
20
-31.883833702794838
30
0
10
49.299419101836186
20
-31.724031445927618
30
0
10
49.185583309012983
20
-31.639700207210826
30
0
10
49.09353349379758
20
-31.607218634849534
30
0
10
49.031178326478901
20
-31.600000473740501
30
0
10
49.000000730156898
20
-31.600000448524952
30
0
0
SPLINE
5
121
100
AcDbEntity
8
0
100
AcDbSpline
70
4
71
5
72
31
73
25
74
0
42
0.000000001
43
0.0000000001
44
0.0000000001
40
0
40
0
40
0
40
0
40
0
40
0
40
0.050000000000000003
40
0.10000000000000001
40
0.15000000000000002
40
0.20000000000000001
40
0.25
40
0.29999999999999999
40
0.34999999999999998
40
0.40000000000000002
40
0.45000000000000001
40
0.5
40
0.54999999999999993
40
0.59999999999999998
40
0.65000000000000002
40
0.70000000000000007
40
0.75000000000000022
40
0.80000000000000016
40
0.8500000000000002
40
0.90000000000000024
40
0.9500000000000004
40
1
40
1
40
1
40
1
40
1
40
1
41
1
41
1
41
1
41
1
41
1
41
1
41
1
41
1
41
1
41
1
41
1
41
1
41
1
41
1
41
1
41
1
41
1
41
1
41
1
41
1
41
1
41
1
41
1
41
1
41
1
10
45.275801841034287
20
-22.176911166279996
30
0
10
45.244624244712874
20
-22.176911141065357
30
0
10
45.182269026744677
20
-22.184129201313919
30
0
10
45.090218983598398
20
-22.216610625053484
30
0
10
44.976382616017965
20
-22.300941681620913
30
0
10
44.862618785200432
20
-22.460743761630653
30
0
10
44.788823469272181
20
-22.655679976245253
30
0
10
44.762949806798566
20
-22.864142143932146
30
0
10
44.788241067966396
20
-23.064965737900962
30
0
10
44.86173853031687
20
-23.240389791381265
30
0
10
44.975541452310772
20
-23.376272398930826
30
0
10
45.118173264973038
20
-23.462171219438872
30
0
10
45.275799730659983
20
-23.491571865909641
30
0
10
45.433426140722226
20
-23.462171453290228
30
0
10
45.576057847999174
20
-23.376272845990123
30
0
10
45.689860744198249
20
-23.240390413003968
30
0
10
45.763358401791017
20
-23.06496647918128
30
0
10
45.788650180197067
20
-22.864142937291497
30
0
10
45.762777357018003
20
-22.655680742619644
30
0
10
45.688983059724102
20
-22.460744420543556
30
0
10
45.575220212708778
20
-22.300942163675657
30
0
10
45.461384419887025
20
-22.216610924960726
30
0
10
45.369334604673227
20
-22.184129352601772
30
0
10
45.306979437355743
20
-22.176911191494636
30
0
10
45.275801841034287
20
-22.176911166279996
30
0
0
SPLINE
5
122
100
AcDbEntity
8
0
100
AcDbSpline
70
4
71
5
72
46
73
40
74
0
42
0.000000001
43
0.0000000001
44
0.0000000001
40
0
40
0
40
0
40
0
40
0
40
0
40
0.028571428571428567
40
0.057142857142857134
40
0.085714285714285715
40
0.11428571428571427
40
0.14285714285714285
40
0.17142857142857146
40
0.20000000000000001
40
0.22857142857142854
40
0.25714285714285717
40
0.2857142857142857
40
0.31428571428571433
40
0.34285714285714292
40
0.3714285714285715
40
0.40000000000000008
40
0.42857142857142871
40
0.4571428571428573
40
0.48571428571428582
40
0.51428571428571435
40
0.54285714285714293
40
0.57142857142857151
40
0.60000000000000009
40
0.62857142857142867
40
0.65714285714285725
40
0.68571428571428583
40
0.71428571428571441
40
0.74285714285714299
40
0.77142857142857146
40
0.80000000000000016
40
0.82857142857142863
40
0.85714285714285732
40
0.8857142857142859
40
0.91428571428571459
40
0.94285714285714295
40
0.97142857142857164
40
1
40
1
40
1
40
1
40
1
40
1
41
1
41
1
41
1
41
1
41
1
41
1
41
1
41
1
41
1
41
1
41
1
41
1
41
1
41
1
41
1
41
1
41
1
41
1
41
1
41
1
41
1
41
1
41
1
41
1
41
1
41
1
41
1
41
1
41
1
41
1
41
1
41
1
41
1
41
1
41
1
41
1
41
1
41
1
41
1
41
1
10
48.937250390255755
20
-25.800876466326518
30
1.7145055443544181e-15
10
49.254906710973501
20
-25.800876466326518
30
1.753407223994007e-15
10
49.872302189371503
20
-25.794611042022733
30
1.8290163636368308e-15
10
50.744643890410082
20
-25.766416699380869
30
1.9358474108308198e-15
10
51.800707232736002
20
-25.69011909196972
30
2.0651778700184047e-15
10
52.944987814873883
20
-25.524127054775398
30
2.2053118252424327e-15
10
53.916960348109413
20
-25.280279766013471
30
2.3243441304109049e-15
10
54.720303052848905
20
-24.952463992138554
30
2.4227252376086138e-15
10
55.358278082920336
20
-24.53785980336793
30
2.5008546454599887e-15
10
55.833022369668825
20
-24.039328710850967
30
2.558994052578163e-15
10
56.145122777042161
20
-23.467372424741974
30
2.5972153290685971e-15
10
56.292518629926185
20
-22.843265589116694
30
2.6152661150129305e-15
10
56.272240412087868
20
-22.197470504077987
30
2.6127827495561448e-15
10
56.083913910425395
20
-21.565021266434204
30
2.5897194048105092e-15
10
55.732939627465541
20
-20.981736529833093
30
2.5467374515893769e-15
10
55.233464609211211
20
-20.480341918269147
30
2.4855694033532773e-15
10
54.612499627049154
20
-20.085998679629395
30
2.4095231255743751e-15
10
53.907399328395911
20
-19.81592692137729
30
2.3231732431919502e-15
10
53.161170768682027
20
-19.6804124064376
30
2.231786601483399e-15
10
52.418440096766901
20
-19.683335603266205
30
2.1408283274846161e-15
10
51.721407196647263
20
-19.822772139325075
30
2.0554664164816521e-15
10
51.105222183814867
20
-20.09169358200614
30
1.9800055161171016e-15
10
50.595430750927299
20
-20.478010031814872
30
1.9175740714653724e-15
10
50.210601289605066
20
-20.963181708593691
30
1.8704460546627448e-15
10
49.964108730038397
20
-21.520785107121544
30
1.8402594222538365e-15
10
49.865775254126312
20
-22.11564194769522
30
1.8282170446010317e-15
10
49.924594326102465
20
-22.701183240710119
30
1.8354203034231551e-15
10
50.146501868846585
20
-23.223642652587785
30
1.862596139615853e-15
10
50.527299677156762
20
-23.632678084340853
30
1.9092304213229785e-15
10
51.047510171619891
20
-23.88955472420427
30
1.9729378330162149e-15
10
51.664934188827942
20
-23.977838649361249
30
2.0485504676559484e-15
10
52.312391676297096
20
-23.908678375232
30
2.1278411416177404e-15
10
52.911279959881981
20
-23.709632374755763
30
2.2011838035715998e-15
10
53.382958305952435
20
-23.41597827548874
30
2.2589477412450842e-15
10
53.65989470642355
20
-23.061824214051413
30
2.2928626688841869e-15
10
53.69967402565527
20
-22.669557226250806
30
2.2977342304798909e-15
10
53.526079087245471
20
-22.333856272319764
30
2.276474981912566e-15
10
53.277593054011135
20
-22.071488166700469
30
2.246044219389987e-15
10
53.059446704740019
20
-21.891865123985077
30
2.2193289965528631e-15
10
52.9372504498604
20
-21.800876406721891
30
2.2043642713128217e-15
0
LINE
5
123
100
AcDbEntity
8
0
100
AcDbLine
10
34.93725018163957
20
-25.800876466326518
30
0
11
48.937250390255755
21
-25.800876466326518
31
1.7145055443544181e-15
0
SPLINE
5
124
100
AcDbEntity
8
0
100
AcDbSpline
70
4
71
5
72
31
73
25
74
0
42
0.000000001
43
0.0000000001
44
0.0000000001
40
0
40
0
40
0
40
0
40
0
40
0
40
0.050000000000000003
40
0.10000000000000001
40
0.15000000000000002
40
0.20000000000000001
40
0.25
40
0.29999999999999999
40
0.34999999999999998
40
0.40000000000000002
40
0.45000000000000001
40
0.5
40
0.54999999999999993
40
0.59999999999999998
40
0.65000000000000002
40
0.70000000000000007
40
0.75000000000000022
40
0.80000000000000016
40
0.8500000000000002
40
0.90000000000000024
40
0.9500000000000004
40
1
40
1
40
1
40
1
40
1
40
1
41
1
41
1
41
1
41
1
41
1
41
1
41
1
41
1
41
1
41
1
41
1
41
1
41
1
41
1
41
1
41
1
41
1
41
1
41
1
41
1
41
1
41
1
41
1
41
1
41
1
10
42.452339427420434
20
-28.01437640178829
30
0
10
42.421161831099035
20
-28.014376376573011
30
0
10
42.358806613130817
20
-28.021594436820372
30
0
10
42.266756569984409
20
-28.054075860558232
30
0
10
42.15292020240372
20
-28.138406917124712
30
0
10
42.039156371586031
20
-28.298208997134886
30
0
10
41.96536105565788
20
-28.493145211751258
30
0
10
41.939487393184606
20
-28.701607379440389
30
0
10
41.964778654352976
20
-28.902430973411075
30
0
10
42.038276116703727
20
-29.077855026892323
30
0
10
42.15207903869765
20
-29.21373763444177
30
0
10
42.294710851359653
20
-29.299636454948793
30
0
10
42.452337317046151
20
-29.32903710141796
30
0
10
42.609963727107854
20
-29.299636688796873
30
0
10
42.75259543438451
20
-29.21373808149561
30
0
10
42.866398330583657
20
-29.077855648509274
30
0
10
42.939895988176687
20
-28.902431714687577
30
0
10
42.965187766583277
20
-28.701608172799858
30
0
10
42.939314943404568
20
-28.493145978130521
30
0
10
42.86552064611066
20
-28.298209656056411
30
0
10
42.751757799095174
20
-28.138407399188985
30
0
10
42.637922006273079
20
-28.054076160472672
30
0
10
42.545872191059281
20
-28.021594588112034
30
0
10
42.483517023741811
20
-28.014376427003565
30
0
10
42.452339427420434
20
-28.01437640178829
30
0
0
SPLINE
5
125
100
AcDbEntity
8
0
100
AcDbSpline
70
4
71
5
72
31
73
25
74
0
42
0.000000001
43
0.0000000001
44
0.0000000001
40
0
40
0
40
0
40
0
40
0
40
0
40
0.050000000000000003
40
0.10000000000000001
40
0.15000000000000002
40
0.20000000000000001
40
0.25
40
0.29999999999999999
40
0.34999999999999998
40
0.40000000000000002
40
0.45000000000000001
40
0.5
40
0.54999999999999993
40
0.59999999999999998
40
0.65000000000000002
40
0.70000000000000007
40
0.75000000000000022
40
0.80000000000000016
40
0.8500000000000002
40
0.90000000000000024
40
0.9500000000000004
40
1
40
1
40
1
40
1
40
1
40
1
41
1
41
1
41
1
41
1
41
1
41
1
41
1
41
1
41
1
41
1
41
1
41
1
41
1
41
1
41
1
41
1
41
1
41
1
41
1
41
1
41
1
41
1
41
1
41
1
41
1
10
49.000000730156898
20
-31.600000448524952
30
0
10
48.968823133834896
20
-31.60000042330941
30
0
10
48.906467915865584
20
-31.607218483556245
30
0
10
48.81441787271762
20
-31.639699907293249
30
0
10
48.7005815051361
20
-31.724030963859143
30
0
10
48.586817674318688
20
-31.883833043869391
30
0
10
48.513022358392099
20
-32.078769258486645
30
0
10
48.487148695920972
20
-32.28723142617698
30
0
10
48.512439957091338
20
-32.488055020148806
30
0
10
48.585937419443184
20
-32.66347907363064
30
0
10
48.699740341436922
20
-32.79936168117996
30
0
10
48.84237215409776
20
-32.885260501686318
30
0
10
48.999998619782588
20
-32.914661148154629
30
0
10
49.157625029842649
20
-32.885260735532697
30
0
10
49.300256737118282
20
-32.79936212823096
30
0
10
49.414059633317322
20
-32.663479695244639
30
0
10
49.487557290911326
20
-32.488055761423439
30
0
10
49.512849069319806
20
-32.287232219536563
30
0
10
49.486976246143385
20
-32.07877002486822
30
0
10
49.413181948851275
20
-31.883833702794838
30
0
10
49.299419101836186
20
-31.724031445927618
30
0
10
49.185583309012983
20
-31.639700207210826
30
0
10
49.09353349379758
20
-31.607218634849534
30
0
10
49.031178326478901
20
-31.600000473740501
30
0
10
49.000000730156898
20
-31.600000448524952
30
0
0
LINE
5
126
100
AcDbEntity
8
0
100
AcDbLine
10
34.93725018163957
20
-25.800876466326518
30
0
11
34.144792157646044
21
-24.80087645142536
31
-9.7048118254231108e-17
0
SPLINE
5
127
100
AcDbEntity
8
0
100
AcDbSpline
70
4
71
5
72
31
73
25
74
0
42
0.000000001
43
0.0000000001
44
0.0000000001
40
0
40
0
40
0
40
0
40
0
40
0
40
0.050000000000000003
40
0.10000000000000001
40
0.15000000000000002
40
0.20000000000000001
40
0.25
40
0.29999999999999999
40
0.34999999999999998
40
0.40000000000000002
40
0.45000000000000001
40
0.5
40
0.54999999999999993
40
0.59999999999999998
40
0.65000000000000002
40
0.70000000000000007
40
0.75000000000000022
40
0.80000000000000016
40
0.8500000000000002
40
0.90000000000000024
40
0.9500000000000004
40
1
40
1
40
1
40
1
40
1
40
1
41
1
41
1
41
1
41
1
41
1
41
1
41
1
41
1
41
1
41
1
41
1
41
1
41
1
41
1
41
1
41
1
41
1
41
1
41
1
41
1
41
1
41
1
41
1
41
1
41
1
10
51.009335944752976
20
-27.286858479261952
30
0
10
50.978158348431108
20
-27.286858454046889
30
0
10
50.915803130462081
20
-27.294076514294652
30
0
10
50.8237530873145
20
-27.326557938033037
30
0
10
50.709916719733386
20
-27.410888994599834
30
0
10
50.596152888916031
20
-27.570691074609801
30
0
10
50.522357572988987
20
-27.765627289225616
30
0
10
50.496483910517121
20
-27.974089456914051
30
0
10
50.521775171686727
20
-28.174913050884207
30
0
10
50.595272634038224
20
-28.350337104365146
30
0
10
50.709075556032069
20
-28.486219711914572
30
0
10
50.851707368693368
20
-28.572118532421893
30
0
10
51.009333834378701
20
-28.601519178891603
30
0
10
51.166960244439117
20
-28.572118766271078
30
0
10
51.309591951714978
20
-28.486220158970269
30
0
10
51.423394847913961
20
-28.350337725984026
30
0
10
51.496892505507795
20
-28.174913792161984
30
0
10
51.522184283915834
20
-27.974090250273491
30
0
10
51.496311460739065
20
-27.765628055603241
30
0
10
51.422517163446663
20
-27.57069173352836
30
0
10
51.308754316431475
20
-27.41088947666077
30
0
10
51.194918523608344
20
-27.32655823794499
30
0
10
51.102868708393281
20
-27.294076665585013
30
0
10
51.04051354107483
20
-27.28685850447701
30
0
10
51.009335944752976
20
-27.286858479261952
30
0
0
SPLINE
5
128
100
AcDbEntity
8
0
100
AcDbSpline
70
4
71
5
72
31
73
25
74
0
42
0.000000001
43
0.0000000001
44
0.0000000001
40
0
40
0
40
0
40
0
40
0
40
0
40
0.050000000000000003
40
0.10000000000000001
40
0.15000000000000002
40
0.20000000000000001
40
0.25
40
0.29999999999999999
40
0.34999999999999998
40
0.40000000000000002
40
0.45000000000000001
40
0.5
40
0.54999999999999993
40
0.59999999999999998
40
0.65000000000000002
40
0.70000000000000007
40
0.75000000000000022
40
0.80000000000000016
40
0.8500000000000002
40
0.90000000000000024
40
0.9500000000000004
40
1
40
1
40
1
40
1
40
1
40
1
41
1
41
1
41
1
41
1
41
1
41
1
41
1
41
1
41
1
41
1
41
1
41
1
41
1
41
1
41
1
41
1
41
1
41
1
41
1
41
1
41
1
41
1
41
1
41
1
41
1
10
44.756146182086944
20
-31.790540856805567
30
0
10
44.724968585765467
20
-31.790540831589986
30
0
10
44.662613367797135
20
-31.797758891836754
30
0
10
44.570563324650585
20
-31.830240315573679
30
0
10
44.45672695706989
20
-31.914571372139502
30
0
10
44.342963126252144
20
-32.074373452149786
30
0
10
44.269167810324063
20
-32.269309666767178
30
0
10
44.243294147851067
20
-32.477771834457613
30
0
10
44.268585409019813
20
-32.678595428429411
30
0
10
44.342082871370827
20
-32.85401948191118
30
0
10
44.455885793364665
20
-32.989902089460436
30
0
10
44.598517606026363
20
-33.075800909966802
30
0
10
44.75614407171264
20
-33.105201556435205
30
0
10
44.913770481774129
20
-33.075801143813464
30
0
10
45.056402189050722
20
-32.989902536511863
30
0
10
45.170205085249862
20
-32.854020103525485
30
0
10
45.243702742843027
20
-32.678596169704136
30
0
10
45.26899452124978
20
-32.477772627817131
30
0
10
45.24312169807132
20
-32.269310433148732
30
0
10
45.169327400777703
20
-32.074374111075365
30
0
10
45.055564553762252
20
-31.914571854208251
30
0
10
44.941728760940116
20
-31.830240615491533
30
0
10
44.849678945726069
20
-31.797759043130217
30
0
10
44.787323778408414
20
-31.790540882021148
30
0
10
44.756146182086944
20
-31.790540856805567
30
0
0
SPLINE
5
129
100
AcDbEntity
8
0
100
AcDbSpline
70
4
71
5
72
46
73
40
74
0
42
0.000000001
43
0.0000000001
44
0.0000000001
40
0
40
0
40
0
40
0
40
0
40
0
40
0.028571428571428567
40
0.057142857142857134
40
0.085714285714285715
40
0.11428571428571427
40
0.14285714285714285
40
0.17142857142857146
40
0.20000000000000001
40
0.22857142857142854
40
0.25714285714285717
40
0.2857142857142857
40
0.31428571428571433
40
0.34285714285714292
40
0.3714285714285715
40
0.40000000000000008
40
0.42857142857142871
40
0.4571428571428573
40
0.48571428571428582
40
0.51428571428571435
40
0.54285714285714293
40
0.57142857142857151
40
0.60000000000000009
40
0.62857142857142867
40
0.65714285714285725
40
0.68571428571428583
40
0.71428571428571441
40
0.74285714285714299
40
0.77142857142857146
40
0.80000000000000016
40
0.82857142857142863
40
0.85714285714285732
40
0.8857142857142859
40
0.91428571428571459
40
0.94285714285714295
40
0.97142857142857164
40
1
40
1
40
1
40
1
40
1
40
1
41
1
41
1
41
1
41
1
41
1
41
1
41
1
41
1
41
1
41
1
41
1
41
1
41
1
41
1
41
1
41
1
41
1
41
1
41
1
41
1
41
1
41
1
41
1
41
1
41
1
41
1
41
1
41
1
41
1
41
1
41
1
41
1
41
1
41
1
41
1
41
1
41
1
41
1
41
1
41
1
10
48.437250382805175
20
-24.80087645142536
30
1.6532732034846173e-15
10
48.683022165581207
20
-24.80087645142536
30
1.6833715661943578e-15
10
49.164724626141741
20
-24.798023223274114
30
1.7423631038410882e-15
10
49.857754963151706
20
-24.785183646681922
30
1.8272348422343687e-15
10
50.72162385077754
20
-24.74991592936458
30
1.9330282690460361e-15
10
51.69434031788186
20
-24.669577014185027
30
2.0521516798380233e-15
10
52.55068339229738
20
-24.545247807487129
30
2.1570234603436431e-15
10
53.280568170433398
20
-24.369150302118872
30
2.246408566072643e-15
10
53.8747001192311
20
-24.135188833650751
30
2.3191687450090605e-15
10
54.326149963834808
20
-23.840607440219692
30
2.3744554057257177e-15
10
54.632089180348132
20
-23.487846146815038
30
2.4119221539491505e-15
10
54.795226610415533
20
-23.086000179457411
30
2.4319007271043052e-15
10
54.826092205247711
20
-22.653361356087643
30
2.4356806722957655e-15
10
54.741781670538082
20
-22.215370526026135
30
2.425355609649147e-15
10
54.562769523266546
20
-21.800058487702778
30
2.4034329443327609e-15
10
54.310212180108593
20
-21.434097539019934
30
2.372503590142863e-15
10
54.003371624469672
20
-21.13899627647227
30
2.3349264597116718e-15
10
53.656224936275699
20
-20.926198305589327
30
2.2924132516584893e-15
10
53.278491182211383
20
-20.797970997713161
30
2.2461542083739534e-15
10
52.878704690286334
20
-20.750970115297058
30
2.1971944836061199e-15
10
52.46667645539614
20
-20.778955325260576
30
2.1467355777045397e-15
10
52.056111115855828
20
-20.875723393529331
30
2.0964558248137816e-15
10
51.667459204260524
20
-21.03822060840924
30
2.0488596928621349e-15
10
51.325194989352205
20
-21.263609663685067
30
2.0069444153371609e-15
10
51.05466023142435
20
-21.545687239093319
30
1.9738134628016267e-15
10
50.879109650445614
20
-21.871854204109002
30
1.9523147170929879e-15
10
50.816567741156724
20
-22.219030911984667
30
1.944655542190402e-15
10
50.876988457075292
20
-22.552410783354034
30
1.9520549458254421e-15
10
51.06005159275454
20
-22.834814230752354
30
1.9744737141406915e-15
10
51.353133527595041
20
-23.033871603951429
30
2.0103658994801402e-15
10
51.728422962946759
20
-23.131067275316731
30
2.0563256000564588e-15
10
52.14242817641491
20
-23.127080656717681
30
2.1070266160073238e-15
10
52.544419568029852
20
-23.034395633874311
30
2.1562563631099164e-15
10
52.883775990367319
20
-22.871700580465607
30
2.1978155387478165e-15
10
53.117065593984506
20
-22.658078788381772
30
2.2263852753810067e-15
10
53.216991330960866
20
-22.406214911471768
30
2.238622648773909e-15
10
53.180085791954106
20
-22.179025745873375
30
2.2341030237522208e-15
10
53.084884262444021
20
-21.995180823394321
30
2.2224441989140725e-15
10
52.991455570420179
20
-21.866640495100565
30
2.2110024840513847e-15
10
52.9372504498604
20
-21.800876406721891
30
2.2043642713128217e-15
0
SPLINE
5
130
100
AcDbEntity
8
0
100
AcDbSpline
70
4
71
5
72
31
73
25
74
0
42
0.000000001
43
0.0000000001
44
0.0000000001
40
0
40
0
40
0
40
0
40
0
40
0
40
0.050000000000000003
40
0.10000000000000001
40
0.15000000000000002
40
0.20000000000000001
40
0.25
40
0.29999999999999999
40
0.34999999999999998
40
0.40000000000000002
40
0.45000000000000001
40
0.5
40
0.54999999999999993
40
0.59999999999999998
40
0.65000000000000002
40
0.70000000000000007
40
0.75000000000000022
40
0.80000000000000016
40
0.8500000000000002
40
0.90000000000000024
40
0.9500000000000004
40
1
40
1
40
1
40
1
40
1
40
1
41
1
41
1
41
1
41
1
41
1
41
1
41
1
41
1
41
1
41
1
41
1
41
1
41
1
41
1
41
1
41
1
41
1
41
1
41
1
41
1
41
1
41
1
41
1
41
1
41
1
10
47.146562213244685
20
-28.343491652455004
30
0
10
47.115384616923343
20
-28.343491627239729
30
0
10
47.053029398955317
20
-28.350709687487097
30
0
10
46.96097935580903
20
-28.383191111224857
30
0
10
46.847142988228796
20
-28.46752216779123
30
0
10
46.733379157411214
20
-28.627324247801361
30
0
10
46.659583841482771
20
-28.822260462417852
30
0
10
46.633710179008894
20
-29.030722630107082
30
0
10
46.659001440176773
20
-29.231546224077878
30
0
10
46.732498902527311
20
-29.406970277559171
30
0
10
46.846301824521234
20
-29.542852885108559
30
0
10
46.988933637183493
20
-29.6287517056155
30
0
10
47.146560102870396
20
-29.65815235208467
30
0
10
47.304186512932432
20
-29.62875193946358
30
0
10
47.446818220209252
20
-29.542853332162373
30
0
10
47.560621116408356
20
-29.406970899176073
30
0
10
47.634118774001209
20
-29.231546965354354
30
0
10
47.659410552407493
20
-29.030723423466572
30
0
10
47.633537729228586
20
-28.822261228797164
30
0
10
47.559743431934535
20
-28.62732490672294
30
0
10
47.445980584919035
20
-28.467522649855521
30
0
10
47.332144792097061
20
-28.383191411139244
30
0
10
47.240094976883412
20
-28.35070983877872
30
0
10
47.177739809566013
20
-28.343491677670269
30
0
10
47.146562213244685
20
-28.343491652455004
30
0
0
LINE
5
131
100
AcDbEntity
8
0
100
AcDbLine
10
34.144792157646044
20
-24.80087645142536
30
-9.7048118254231108e-17
11
48.437250382805175
21
-24.80087645142536
31
1.6532732034846173e-15
0
ENDSEC
0
SECTION
2
OBJECTS
0
DICTIONARY
5
C
100
AcDbDictionary
3
ACAD_GROUP
350
D
3
ACAD_MLINESTYLE
350
17
0
DICTIONARY
5
D
100
AcDbDictionary
0
DICTIONARY
5
1A
330
C
100
AcDbDictionary
0
DICTIONARY
5
17
100
AcDbDictionary
0
ENDSEC
0
EOF
